<?xml version="1.0" encoding="UTF-8"?>
<svg width="44px" height="44px" viewBox="0 0 44 44" version="1.1" xmlns="http://www.w3.org/2000/svg" xmlns:xlink="http://www.w3.org/1999/xlink">
    <!-- Generator: Sketch 60 (88103) - https://sketch.com -->
    <title>矩形备份 58</title>
    <desc>Created with Sketch.</desc>
    <g id="页面1" stroke="none" stroke-width="1" fill="none" fill-rule="evenodd">
        <g id="7.0-优化" transform="translate(-399.000000, -1412.000000)" fill="#AF9673" fill-rule="nonzero" stroke="#FFFFFF" stroke-width="0.5">
            <g id="发现备份-3" transform="translate(400.000000, 1413.000000)">
                <path d="M37.7968866,21.0009396 C37.7968866,11.7216308 30.2691694,4.200183 20.984581,4.200183 L20.984581,0 C32.5913878,0 42,9.40212971 42,21.0009396 L37.7969211,21.0009396 L37.7968866,21.0009396 Z M20.984581,12.6005195 L20.984581,8.40033646 C27.3680095,8.40033646 32.5430688,13.5718302 32.5430688,19.9508606 C32.5430688,20.3057764 32.5210026,20.6543899 32.4894795,21.0009051 L28.2338605,21.0009051 C28.2842975,20.6554398 28.3399885,20.3110248 28.3399885,19.9508606 C28.3399884,15.8913805 25.0468732,12.6005539 20.984581,12.6005539 L20.984581,12.6005195 Z M35.865604,35.8590255 C35.7678824,35.9566798 35.6607038,36.0385834 35.5619316,36.1341374 L35.4095701,36.285344 L35.4022147,36.2779937 C27.1652276,44.0378184 14.2029273,43.9118129 6.14562192,35.8590253 C-1.9127178,27.8072714 -2.03989382,14.853902 5.72636464,6.62259012 L8.66116562,3.6163096 L38.381148,33.3158152 L35.8656043,35.8590253 L35.865604,35.8590255 Z M9.11721593,32.8894933 C15.5342855,39.3010587 25.8360359,39.4291808 32.4295856,33.3084617 L8.69795864,9.59318561 C2.57301955,16.1811588 2.70014632,26.4768942 9.11721593,32.8894933 Z" id="形状"></path>
            </g>
        </g>
    </g>
</svg>