<?xml version="1.0" encoding="UTF-8"?>
<svg width="44px" height="44px" viewBox="0 0 44 44" version="1.1" xmlns="http://www.w3.org/2000/svg" xmlns:xlink="http://www.w3.org/1999/xlink">
    <!-- Generator: Sketch 60 (88103) - https://sketch.com -->
    <title>编组 8备份 4</title>
    <desc>Created with Sketch.</desc>
    <g id="页面1" stroke="none" stroke-width="1" fill="none" fill-rule="evenodd">
        <g id="7.3" transform="translate(-353.000000, -98.000000)" fill="#AF9673">
            <g id="编组-2" transform="translate(354.000000, 99.000000)">
                <rect id="矩形" x="9" y="38" width="24" height="3.5"></rect>
                <path d="M6.76470588,35 L2,17 L6.23529412,17 L9.941,31 L32.827,31 L35.7206529,17 L40,17 L36.2793471,35 L6.76470588,35 Z" id="形状结合" stroke="#FFFFFF" stroke-width="0.7"></path>
                <path d="M24.5457044,8 L29.1051791,16.7309131 L32.2944987,13.9043565 L34.9478595,16.8976283 L27.9284562,23.1199198 L21.246,10.321 L14.5632718,23.1199198 L7,16.495056 L9.65336083,13.5017842 L13.3863276,16.7309131 L17.9460236,8 L21.246,9.723 L24.5457044,8 Z" id="形状结合" stroke="#FFFFFF" stroke-width="0.7" fill-rule="nonzero"></path>
                <path d="M5.25,8 C2.35050506,8 0,10.3505051 0,13.25 C0,16.1494949 2.35050506,18.5 5.25,18.5 C8.14949494,18.5 10.5,16.1494949 10.5,13.25 C10.5,10.3505051 8.14949494,8 5.25,8 Z M5.25,10.8636364 C6.56795224,10.8636364 7.63636364,11.9320478 7.63636364,13.25 C7.63636364,14.5679522 6.56795224,15.6363636 5.25,15.6363636 C3.93204776,15.6363636 2.86363636,14.5679522 2.86363636,13.25 C2.86363636,11.9320478 3.93204776,10.8636364 5.25,10.8636364 Z" id="椭圆形备份" fill-rule="nonzero"></path>
                <path d="M37.25,8 C34.3505051,8 32,10.3505051 32,13.25 C32,16.1494949 34.3505051,18.5 37.25,18.5 C40.1494949,18.5 42.5,16.1494949 42.5,13.25 C42.5,10.3505051 40.1494949,8 37.25,8 Z M37.25,10.8636364 C38.5679522,10.8636364 39.6363636,11.9320478 39.6363636,13.25 C39.6363636,14.5679522 38.5679522,15.6363636 37.25,15.6363636 C35.9320478,15.6363636 34.8636364,14.5679522 34.8636364,13.25 C34.8636364,11.9320478 35.9320478,10.8636364 37.25,10.8636364 Z" id="椭圆形备份-2" fill-rule="nonzero"></path>
                <path d="M21.25,0 C18.3505051,0 16,2.35050506 16,5.25 C16,8.14949494 18.3505051,10.5 21.25,10.5 C24.1494949,10.5 26.5,8.14949494 26.5,5.25 C26.5,2.35050506 24.1494949,0 21.25,0 Z M21.25,2.86363636 C22.5679522,2.86363636 23.6363636,3.93204776 23.6363636,5.25 C23.6363636,6.56795224 22.5679522,7.63636364 21.25,7.63636364 C19.9320478,7.63636364 18.8636364,6.56795224 18.8636364,5.25 C18.8636364,3.93204776 19.9320478,2.86363636 21.25,2.86363636 Z" id="椭圆形" fill-rule="nonzero"></path>
            </g>
        </g>
    </g>
</svg>