<?xml version="1.0" encoding="UTF-8"?>
<svg width="44px" height="44px" viewBox="0 0 44 44" version="1.1" xmlns="http://www.w3.org/2000/svg" xmlns:xlink="http://www.w3.org/1999/xlink">
    <!-- Generator: Sketch 60 (88103) - https://sketch.com -->
    <title>矩形备份 80</title>
    <desc>Created with Sketch.</desc>
    <g id="页面1" stroke="none" stroke-width="1" fill="none" fill-rule="evenodd">
        <g id="7.0-优化" transform="translate(-538.000000, -1279.000000)" fill="#AF9673" fill-rule="nonzero" stroke="#AF9673" stroke-width="0.9">
            <g id="钻石" transform="translate(539.000000, 1280.000000)">
                <path d="M29.9242555,16.2254238 L39.0591431,16.2254238 L23.3446444,36.2533498 L29.9242965,16.2254238 L29.9242555,16.2254238 Z M28.11448,16.2254238 L20.9841104,38.0123018 L13.85452,16.2254238 L28.11448,16.2254238 L28.11448,16.2254238 Z M12.0442523,16.2254238 L18.6238225,36.2533498 L2.90952878,16.2254238 L12.0442523,16.2254238 Z M30.9478016,2.46273113 L39.0575025,14.3018821 L29.7519077,14.3018821 L22.6721514,2.46273113 L30.9478016,2.46273113 Z M19.2959873,2.46274037 L12.2167642,14.3018914 L2.91104636,14.3018914 L11.0212804,2.46274037 L19.2959873,2.46274037 Z M20.9841104,3.12368989 L27.6322997,14.3018819 L14.3364542,14.3018819 L20.9841104,3.12368989 Z M31.9970892,0.881098546 C31.8351035,0.664315996 31.5963825,0.539244536 31.3445914,0.539244536 L10.6246219,0.539244536 C10.3729797,0.539244536 10.1342591,0.664315534 9.97202567,0.881098546 L0.422428617,14.6437357 C0.208411297,14.9296368 0.160884797,15.3296752 0.300889745,15.6690191 C0.333267066,15.7470632 0.37609034,15.8172969 0.423913794,15.8811715 L20.1938853,41.3787452 C20.5322993,41.8152018 21.1604561,41.8946811 21.5969127,41.5562671 C21.663287,41.5048027 21.7229133,41.4451814 21.7743833,41.3788114 L41.5463148,15.8831241 L41.5463148,15.8831241 C41.5923559,15.8172969 41.6350803,15.7470632 41.667408,15.6690191 C41.8075118,15.3296756 41.7601342,14.9295827 41.5461169,14.6437357 L31.9970892,0.881098546 Z" id="形状"></path>
            </g>
        </g>
    </g>
</svg>