<?xml version="1.0" encoding="UTF-8"?>
<svg width="44px" height="44px" viewBox="0 0 44 44" version="1.1" xmlns="http://www.w3.org/2000/svg" xmlns:xlink="http://www.w3.org/1999/xlink">
    <!-- Generator: Sketch 60 (88103) - https://sketch.com -->
    <title>矩形备份 38</title>
    <desc>Created with Sketch.</desc>
    <g id="页面1" stroke="none" stroke-width="1" fill="none" fill-rule="evenodd">
        <g id="7.0-优化" transform="translate(-726.000000, -113.000000)" fill="#AF9673" fill-rule="nonzero" stroke="#FFFFFF">
            <g id="奖杯-copy" transform="translate(726.000000, 112.000000)">
                <g id="奖杯" transform="translate(0.360000, 0.690000)">
                    <path d="M41.5398258,7.37003343 L36.1800268,7.37003343 L36.1800268,0 L6.69989309,0 L6.69989309,7.37003343 L1.34009412,7.37003343 C0.984600663,7.36977721 0.643593676,7.51088299 0.392221779,7.76225489 C0.140849883,8.0136268 0,8.35463379 0,8.71012725 L0,19.4299127 C0,23.3112643 4.17793114,26.6176008 7.9406135,27.3050139 C10.08486,32.2321982 14.1129066,35.6176475 19.4298662,36.1106554 L19.4298662,40.1997182 L11.3901745,40.1997182 L11.3901745,44.2199058 L31.4897454,44.2199058 L31.4897454,40.1997182 L23.4500537,40.1997182 L23.4500537,36.1106554 C28.7670133,35.6176475 32.7950599,32.2321982 34.9393064,27.3050139 C38.7019887,26.6185656 42.8799196,23.3112643 42.8799196,19.4299127 L42.8799196,8.70964485 C42.8799196,8.35423495 42.7388854,8.01335197 42.4875274,7.76208444 C42.2361694,7.51081692 41.8952356,7.36977734 41.5398258,7.37003343 Z M4.02018794,16.0799127 L4.02018794,11.3897386 L6.70037549,11.3897386 L6.70037549,20.099571 C6.70038379,21.0188829 6.78842068,21.9360819 6.96328085,22.8386108 C5.21363358,21.9524509 4.02018794,19.4715394 4.02018794,17.4199127 L4.02018794,16.0799127 Z M32.1598392,8.70964485 L32.1598392,21.439571 C32.1571452,22.864499 31.4656248,31.4894503 21.4399599,31.4894503 C11.4142951,31.4894503 10.7235053,22.8646053 10.7200807,21.439571 L10.7200807,4.02009382 L32.1598392,4.02009382 L32.1598392,8.70964485 Z M38.859732,17.4199127 C38.859732,19.4715394 37.6662864,21.2829333 35.9171214,22.170058 C36.0920429,21.2672127 36.1800801,20.3496877 36.1800268,19.4300534 L36.1800268,12.0597386 L38.8602144,12.0597386 L38.859732,17.4199127 Z" id="Shape"></path>
                </g>
            </g>
        </g>
    </g>
</svg>