<?xml version="1.0" encoding="UTF-8"?>
<svg width="44px" height="44px" viewBox="0 0 44 44" version="1.1" xmlns="http://www.w3.org/2000/svg" xmlns:xlink="http://www.w3.org/1999/xlink">
    <!-- Generator: Sketch 60 (88103) - https://sketch.com -->
    <title>矩形备份 83</title>
    <desc>Created with Sketch.</desc>
    <g id="页面1" stroke="none" stroke-width="1" fill="none" fill-rule="evenodd">
        <g id="7.0-优化" transform="translate(-260.000000, -1280.000000)">
            <g id="编组-26备份" transform="translate(262.000000, 1280.000000)">
                <rect id="矩形备份" stroke="#FFFFFF" stroke-width="0.5" fill="#AF9673" x="3.25" y="0.25" width="33.5" height="4.225"></rect>
                <rect id="矩形备份-5" stroke="#AF9673" stroke-width="3.3" x="0" y="11" width="40" height="31"></rect>
                <g id="Group-5" transform="translate(12.000000, 16.000000)" fill="#AF9673">
                    <polygon id="Rectangle" fill-rule="nonzero" transform="translate(5.396614, 4.489325) rotate(-30.000000) translate(-5.396614, -4.489325) " points="3.79780849 0.482019849 7.04661377 0.460199481 6.99541905 8.49663096 3.74661377 8.51845133"></polygon>
                    <polygon id="Rectangle" points="0 6.03478614 16 6 16 8.96521386 0 9"></polygon>
                    <rect id="Rectangle" x="0" y="12" width="16" height="3"></rect>
                    <polygon id="Rectangle" transform="translate(8.000000, 13.650000) rotate(-270.000000) translate(-8.000000, -13.650000) " points="0.999999833 12.0000002 14.9999998 12.0000002 14.9999998 15.3000002 0.999999833 15.3000002"></polygon>
                    <polygon id="Rectangle" fill-rule="nonzero" transform="translate(10.396614, 4.489325) rotate(-330.000000) translate(-10.396614, -4.489325) " points="8.74661377 0.460199481 11.995419 0.482019849 12.0466138 8.51845133 8.79780849 8.49663096"></polygon>
                </g>
            </g>
        </g>
    </g>
</svg>