<?xml version="1.0" encoding="UTF-8"?>
<svg width="44px" height="44px" viewBox="0 0 44 44" version="1.1" xmlns="http://www.w3.org/2000/svg" xmlns:xlink="http://www.w3.org/1999/xlink">
    <!-- Generator: Sketch 60 (88103) - https://sketch.com -->
    <title>矩形备份 74</title>
    <desc>Created with Sketch.</desc>
    <g id="页面1" stroke="none" stroke-width="1" fill="none" fill-rule="evenodd">
        <g id="7.0-优化" transform="translate(-119.000000, -1279.000000)">
            <g id="编组-8备份-2" transform="translate(121.000000, 1282.000000)">
                <polygon id="Path" fill="#AF9673" fill-rule="nonzero" points="18 6.40967803 18 8.27441002 19.703964 6.86473199 19.703964 12.5924764 21.5378033 12.5924764 21.5378033 5 19.703964 5"></polygon>
                <path d="M9,16.3057057 C9,14.8665071 7.95242915,14 6.51518219,14 C5.16396761,14 4.00506073,14.8266677 4.00506073,16.3306053 L5.79149798,16.3306053 C5.79149798,15.7379942 6.18623482,15.5885964 6.51012146,15.5885964 C6.97064777,15.5885964 7.20850202,15.8774321 7.20850202,16.2957459 C7.20850202,16.619441 7.09716599,16.8086782 6.81376518,17.1124537 L4,20.115349 L4,21.7039454 L8.99493927,21.7039454 L8.99493927,20.115349 L6.18117409,20.115349 L8.03846154,18.1831378 C8.66093117,17.5407273 9,17.1074738 9,16.3057057 Z" id="Path" fill="#AF9673" fill-rule="nonzero"></path>
                <path d="M34.1800391,22.2998325 C34.1800391,22.6403657 33.9794521,23.0105104 33.4608611,23.0105104 L33.2162427,23.0105104 L33.2162427,24.5207008 L33.4608611,24.5207008 C33.925636,24.5207008 34.2632094,24.861234 34.2632094,25.3202134 C34.2632094,25.8630924 33.9452055,26.1295966 33.4951076,26.1295966 C33.0645793,26.1295966 32.7270059,25.8630924 32.7270059,25.330084 L31,25.330084 C31,27.0327497 32.2524462,27.7039454 33.5,27.7039454 C34.816047,27.7039454 36,26.9587207 36,25.3745013 C36,24.4713482 35.5450098,24.0123688 35.1340509,23.7261235 C35.5156556,23.4793604 35.9119374,23.0796041 35.9119374,22.2455446 C35.9119374,20.9377 34.8894325,20 33.4951076,20 C32.1545988,20 31.0782779,20.863671 31.0782779,22.2850267 L32.8052838,22.2850267 C32.8101761,21.8309825 33.1330724,21.5743489 33.4951076,21.5743489 C33.8522505,21.5743489 34.1800391,21.821112 34.1800391,22.2998325 Z" id="Path" fill="#AF9673" fill-rule="nonzero"></path>
                <g id="编组-4" stroke="#AF9673" stroke-width="3">
                    <rect id="矩形" x="13" y="0" width="14" height="38"></rect>
                    <rect id="矩形备份-2" x="0" y="9" width="13" height="29"></rect>
                    <rect id="矩形备份-4" x="27" y="15" width="13" height="23"></rect>
                </g>
            </g>
        </g>
    </g>
</svg>