<?xml version="1.0" encoding="UTF-8"?>
<svg width="44px" height="44px" viewBox="0 0 44 44" version="1.1" xmlns="http://www.w3.org/2000/svg" xmlns:xlink="http://www.w3.org/1999/xlink">
    <!-- Generator: Sketch 60 (88103) - https://sketch.com -->
    <title>矩形备份 77</title>
    <desc>Created with Sketch.</desc>
    <g id="页面1" stroke="none" stroke-width="1" fill="none" fill-rule="evenodd">
        <g id="7.0-优化" transform="translate(-398.000000, -1279.000000)" fill="#AF9673" stroke="#FFFFFF" stroke-width="0.3">
            <g id="Group-2-Copy备份-2" transform="translate(398.000000, 1279.000000)">
                <path d="M16.3740712,16.76 L31.3740712,26.26 L16.3740712,35.76 L16.3740712,16.76 Z M19.5851526,22.35 L19.5851526,30.15 L25.5851526,26.25 L19.5851526,22.35 Z" id="Combined-Shape"></path>
                <path d="M30.8091837,0.677765384 L25.7408986,9.45487589 L25.611,9.52986682 L18.608,9.52986682 L18.4780951,9.45486496 L13.4108054,0.677771699 L10.1891889,2.53777286 L14.2257973,9.52986434 L0.15,9.52999857 L0.15,44.07 L44.07,44.07 L44.07,9.52999857 L29.9931701,9.52986434 L34.030797,2.5377647 L30.8091837,0.677765384 Z M40.1640765,13.4 L40.1640765,40.2 L40.0140765,40.35 L4.02,40.35 L3.87,40.2 L3.87,13.4 L4.02,13.25 L40.0140765,13.25 L40.1640765,13.4 Z" id="形状结合"></path>
            </g>
        </g>
    </g>
</svg>