<?xml version="1.0" encoding="UTF-8"?>
<svg width="44px" height="44px" viewBox="0 0 44 44" version="1.1" xmlns="http://www.w3.org/2000/svg" xmlns:xlink="http://www.w3.org/1999/xlink">
    <!-- Generator: Sketch 60 (88103) - https://sketch.com -->
    <title>矩形备份 84</title>
    <desc>Created with Sketch.</desc>
    <g id="页面1" stroke="none" stroke-width="1" fill="none" fill-rule="evenodd">
        <g id="7.0-优化" transform="translate(-678.000000, -1279.000000)" fill="#AF9673">
            <g id="行业资讯备份-3" transform="translate(679.000000, 1280.000000)">
                <path d="M29.4637463,43 L3.23798257,43 L0,43 L0,0 L38.7620174,0 L42,0.0769551363 L42,30.5592648 C42,37.0502146 36.0138842,43 29.4637463,43 Z M3.51489258,39.5162354 L29.2542794,39.5162354 C34.2271813,39.5162354 38.4467773,35.3585989 38.4467773,30.4306329 L38.4467773,3.45898437 L3.51489258,3.45898437 L3.51489258,39.5162354 Z" id="Shape" stroke="#FFFFFF" stroke-width="0.5" fill-rule="nonzero"></path>
                <path d="M14,10.1916427 C14.0005115,9.24449352 14.6394233,8.40472374 15.5841724,8.10944591 C16.5289215,7.81416809 17.5659174,8.13013913 18.1553885,8.89289145 L24.6867168,17.349099 L24.6867168,8 L26.3408522,8 L28,8.10944591 L28,19.7365093 C28,20.7133496 27.3421371,21.5799861 26.3682692,21.8859591 C25.3944013,22.191932 24.3243418,21.8681905 23.7142857,21.0830088 L17.3082707,12.8703171 L17.3082707,21.9997744 L15.6541353,21.9997744 L14,21.9997744 L14,10.1916427 Z" id="Path" stroke="#FFFFFF" stroke-width="0.3"></path>
                <path d="M33,28.4730837 L9,28.5 L9,25 L33,25 L33,28.4730837 Z M23,35.5 L9,35.5 L9,32 L22.9834388,32 L23,35.5 Z" id="Shape" fill-rule="nonzero"></path>
            </g>
        </g>
    </g>
</svg>